<svg id="visual" viewBox="0 0 900 600" width="900" height="600" xmlns="http://www.w3.org/2000/svg" xmlns:xlink="http://www.w3.org/1999/xlink" version="1.1"><rect x="0" y="0" width="900" height="600" fill="#14B789"></rect><path d="M0 288L30 258.3C60 228.7 120 169.3 180 149.5C240 129.7 300 149.3 360 193.2C420 237 480 305 540 324C600 343 660 313 720 275.3C780 237.7 840 192.3 870 169.7L900 147L900 0L870 0C840 0 780 0 720 0C660 0 600 0 540 0C480 0 420 0 360 0C300 0 240 0 180 0C120 0 60 0 30 0L0 0Z" fill="#535da1" stroke-linecap="round" stroke-linejoin="miter"></path></svg>